<svg width="274" height="49" viewBox="0 0 274 49" fill="none" xmlns="http://www.w3.org/2000/svg">
<path d="M16.6428 48.216C14.0401 48.216 11.8214 47.896 9.98675 47.256C8.19475 46.616 6.72275 45.8693 5.57075 45.016C4.41875 44.12 3.54409 43.3093 2.94675 42.584C2.34942 41.8587 1.98675 41.4107 1.85875 41.24C1.00542 40.1733 0.472085 39.2133 0.258752 38.36C0.0880852 37.5067 0.216085 36.6533 0.642752 35.8C1.11209 34.9467 1.88009 34.008 2.94675 32.984C3.92809 32.0453 4.88809 31.5333 5.82675 31.448C6.76542 31.32 7.68275 31.512 8.57875 32.024C9.51742 32.536 10.4134 33.2827 11.2668 34.264C12.2908 35.416 13.1654 36.2053 13.8908 36.632C14.6161 37.016 15.4481 37.208 16.3868 37.208C17.5388 37.208 18.4774 37.08 19.2028 36.824C19.9281 36.5253 20.4614 36.0987 20.8028 35.544C21.1441 34.9467 21.3148 34.2 21.3148 33.304C21.3148 32.5787 20.9521 32.024 20.2268 31.64C19.5014 31.2133 18.5414 30.8507 17.3468 30.552C16.1948 30.2533 14.8934 29.9333 13.4428 29.592C11.9921 29.208 10.5628 28.7173 9.15475 28.12C8.30142 27.7787 7.46942 27.352 6.65875 26.84C5.84809 26.328 5.08009 25.752 4.35475 25.112C3.67209 24.4293 3.07475 23.64 2.56275 22.744C2.05075 21.8053 1.64542 20.76 1.34675 19.608C1.09075 18.456 0.962752 17.1547 0.962752 15.704C0.962752 13.1013 1.60275 10.776 2.88275 8.728C4.20542 6.68 5.99742 5.05866 8.25875 3.864C10.5628 2.66933 13.1654 2.072 16.0668 2.072C18.1574 2.072 19.9494 2.24267 21.4428 2.584C22.9361 2.92533 24.1521 3.33066 25.0908 3.8C26.0721 4.26933 26.8188 4.71733 27.3308 5.144C27.8428 5.528 28.1628 5.784 28.2908 5.912C29.6988 7.192 30.4668 8.30133 30.5948 9.24C30.7228 10.136 30.2108 11.4373 29.0588 13.144C27.7788 14.9787 26.5201 16.024 25.2828 16.28C24.0454 16.4933 22.6161 16.088 20.9948 15.064C20.6534 14.808 20.3121 14.5307 19.9708 14.232C19.6294 13.8907 19.1601 13.6133 18.5628 13.4C18.0081 13.144 17.1548 13.016 16.0028 13.016C15.5761 13.016 15.1494 13.1013 14.7228 13.272C14.2961 13.4 13.9334 13.592 13.6348 13.848C13.3361 14.0613 13.0801 14.3387 12.8668 14.68C12.6961 15.0213 12.6108 15.384 12.6108 15.768C12.6108 16.664 12.9521 17.368 13.6348 17.88C14.3174 18.3493 15.2134 18.712 16.3228 18.968C17.4748 19.224 18.7334 19.48 20.0988 19.736C21.4641 19.992 22.8508 20.3333 24.2588 20.76C25.4108 21.144 26.5201 21.6347 27.5868 22.232C28.6534 22.8293 29.5921 23.5973 30.4028 24.536C31.2134 25.4747 31.8534 26.648 32.3228 28.056C32.8348 29.4213 33.0908 31.1067 33.0908 33.112C33.0908 35.8853 32.5574 38.2533 31.4908 40.216C30.4241 42.136 29.0374 43.6933 27.3308 44.888C25.6668 46.04 23.8748 46.872 21.9548 47.384C20.0774 47.9387 18.3068 48.216 16.6428 48.216ZM67.0102 47.448C65.0902 47.448 63.6609 47.128 62.7222 46.488C61.8262 45.848 61.3996 45.1227 61.4422 44.312H62.3382C62.1249 44.6107 61.6982 45.016 61.0582 45.528C60.4609 45.9973 59.6502 46.4453 58.6262 46.872C57.6022 47.256 56.3436 47.448 54.8502 47.448C52.9302 47.448 51.0742 47.0213 49.2822 46.168C47.5329 45.272 45.9542 44.056 44.5462 42.52C43.1809 40.984 42.0929 39.256 41.2822 37.336C40.4716 35.3733 40.0662 33.3253 40.0662 31.192C40.0662 29.1013 40.4716 27.096 41.2822 25.176C42.0929 23.256 43.2022 21.5493 44.6102 20.056C46.0182 18.52 47.5969 17.3253 49.3462 16.472C51.0956 15.576 52.9302 15.128 54.8502 15.128C56.3009 15.128 57.5169 15.3413 58.4982 15.768C59.5222 16.1947 60.3329 16.664 60.9302 17.176C61.5702 17.688 61.9969 18.1147 62.2102 18.456H61.5062C61.4636 17.3893 61.8902 16.5573 62.7862 15.96C63.7249 15.3627 65.1542 15.064 67.0742 15.064C68.9942 15.064 70.3382 15.3627 71.1062 15.96C71.9169 16.5147 72.4076 17.24 72.5782 18.136C72.7489 19.032 72.8342 19.9493 72.8342 20.888V41.688C72.8342 42.6267 72.7489 43.544 72.5782 44.44C72.4076 45.336 71.9169 46.0613 71.1062 46.616C70.3382 47.1707 68.9729 47.448 67.0102 47.448ZM56.4502 35.864C57.2609 35.864 57.9862 35.6507 58.6262 35.224C59.3089 34.7973 59.8422 34.2427 60.2262 33.56C60.6529 32.8347 60.8662 32.0667 60.8662 31.256C60.8662 30.4027 60.6529 29.6347 60.2262 28.952C59.8422 28.2693 59.3089 27.7147 58.6262 27.288C57.9436 26.8613 57.1756 26.648 56.3222 26.648C55.4689 26.648 54.6796 26.8613 53.9542 27.288C53.2716 27.7147 52.7169 28.2907 52.2902 29.016C51.8636 29.6987 51.6502 30.4667 51.6502 31.32C51.6502 32.1307 51.8636 32.8773 52.2902 33.56C52.7596 34.2427 53.3569 34.7973 54.0822 35.224C54.8076 35.6507 55.5969 35.864 56.4502 35.864Z" fill="#559E6C"/>
<path d="M97.3458 47.896C96.1511 47.896 95.1058 47.6613 94.2098 47.192C93.3564 46.7227 92.6951 46.0187 92.2257 45.08L80.8977 23.512C79.9591 21.6773 79.6604 20.1413 80.0017 18.904C80.3431 17.6667 81.4951 16.5787 83.4577 15.64C85.4631 14.6587 87.0418 14.3173 88.1938 14.616C89.3458 14.9147 90.3911 16.1307 91.3298 18.264L97.3458 31.96L103.362 18.264C104.343 16.0453 105.41 14.808 106.562 14.552C107.714 14.296 109.271 14.6587 111.234 15.64C113.239 16.6213 114.391 17.752 114.69 19.032C114.988 20.2693 114.69 21.7627 113.794 23.512L102.466 45.08C101.996 46.0187 101.335 46.7227 100.482 47.192C99.6284 47.6613 98.5831 47.896 97.3458 47.896ZM128.971 47.576C127.051 47.576 125.686 47.2987 124.875 46.744C124.065 46.1467 123.574 45.4 123.403 44.504C123.275 43.608 123.211 42.6907 123.211 41.752V20.888C123.211 19.9493 123.297 19.0533 123.467 18.2C123.638 17.304 124.129 16.5787 124.939 16.024C125.75 15.4267 127.115 15.128 129.035 15.128C130.955 15.128 132.299 15.4267 133.067 16.024C133.878 16.5787 134.369 17.304 134.539 18.2C134.71 19.096 134.795 20.0347 134.795 21.016V41.816C134.795 42.7547 134.71 43.672 134.539 44.568C134.369 45.464 133.878 46.1893 133.067 46.744C132.299 47.2987 130.934 47.576 128.971 47.576ZM128.971 11.992C127.051 11.992 125.686 11.7147 124.875 11.16C124.065 10.5627 123.574 9.816 123.403 8.92C123.275 8.024 123.211 7.10666 123.211 6.168C123.211 5.18667 123.297 4.26933 123.467 3.416C123.638 2.52 124.129 1.79467 124.939 1.24C125.75 0.685331 127.115 0.407997 129.035 0.407997C130.955 0.407997 132.299 0.706664 133.067 1.304C133.878 1.85866 134.369 2.584 134.539 3.48C134.71 4.376 134.795 5.29333 134.795 6.232C134.795 7.17067 134.71 8.088 134.539 8.984C134.369 9.88 133.878 10.6053 133.067 11.16C132.299 11.7147 130.934 11.992 128.971 11.992ZM161.482 47.576C159.22 47.576 157.258 47.32 155.594 46.808C153.93 46.296 152.543 45.5067 151.434 44.44C150.367 43.3733 149.556 42.0293 149.002 40.408C148.49 38.7867 148.234 36.888 148.234 34.712V9.88C148.234 8.89866 148.319 8.00266 148.49 7.192C148.66 6.33867 149.151 5.656 149.962 5.144C150.772 4.58933 152.138 4.312 154.058 4.312C155.935 4.312 157.279 4.61066 158.09 5.208C158.9 5.76266 159.391 6.488 159.562 7.384C159.732 8.28 159.818 9.19733 159.818 10.136V34.136C159.818 34.6053 159.839 35.0107 159.882 35.352C159.967 35.6507 160.074 35.8853 160.202 36.056C160.33 36.2267 160.5 36.3547 160.714 36.44C160.927 36.5253 161.204 36.568 161.546 36.568C162.655 36.568 163.636 36.6533 164.49 36.824C165.386 36.9947 166.068 37.4427 166.538 38.168C167.05 38.8933 167.306 40.1093 167.306 41.816C167.306 43.736 167.007 45.1013 166.41 45.912C165.812 46.7227 165.066 47.192 164.17 47.32C163.274 47.4907 162.378 47.576 161.482 47.576ZM146.89 15.448H154.378L163.21 15.128C164.148 15.128 165.044 15.2133 165.898 15.384C166.794 15.5547 167.519 16.0453 168.074 16.856C168.671 17.6667 168.97 19.0533 168.97 21.016C168.97 22.808 168.671 24.1093 168.074 24.92C167.519 25.7307 166.794 26.2427 165.898 26.456C165.044 26.6693 164.127 26.776 163.146 26.776L155.018 26.584H146.634C145.183 26.4987 144.18 26.0293 143.626 25.176C143.071 24.3227 142.794 22.9147 142.794 20.952C142.794 19.1173 143.135 17.752 143.818 16.856C144.5 15.9173 145.524 15.448 146.89 15.448ZM202.615 47.448C200.695 47.448 199.266 47.128 198.327 46.488C197.431 45.848 197.005 45.1227 197.047 44.312H197.943C197.73 44.6107 197.303 45.016 196.663 45.528C196.066 45.9973 195.255 46.4453 194.231 46.872C193.207 47.256 191.949 47.448 190.455 47.448C188.535 47.448 186.679 47.0213 184.887 46.168C183.138 45.272 181.559 44.056 180.151 42.52C178.786 40.984 177.698 39.256 176.887 37.336C176.077 35.3733 175.671 33.3253 175.671 31.192C175.671 29.1013 176.077 27.096 176.887 25.176C177.698 23.256 178.807 21.5493 180.215 20.056C181.623 18.52 183.202 17.3253 184.951 16.472C186.701 15.576 188.535 15.128 190.455 15.128C191.906 15.128 193.122 15.3413 194.103 15.768C195.127 16.1947 195.938 16.664 196.535 17.176C197.175 17.688 197.602 18.1147 197.815 18.456H197.111C197.069 17.3893 197.495 16.5573 198.391 15.96C199.33 15.3627 200.759 15.064 202.679 15.064C204.599 15.064 205.943 15.3627 206.711 15.96C207.522 16.5147 208.013 17.24 208.183 18.136C208.354 19.032 208.439 19.9493 208.439 20.888V41.688C208.439 42.6267 208.354 43.544 208.183 44.44C208.013 45.336 207.522 46.0613 206.711 46.616C205.943 47.1707 204.578 47.448 202.615 47.448ZM192.055 35.864C192.866 35.864 193.591 35.6507 194.231 35.224C194.914 34.7973 195.447 34.2427 195.831 33.56C196.258 32.8347 196.471 32.0667 196.471 31.256C196.471 30.4027 196.258 29.6347 195.831 28.952C195.447 28.2693 194.914 27.7147 194.231 27.288C193.549 26.8613 192.781 26.648 191.927 26.648C191.074 26.648 190.285 26.8613 189.559 27.288C188.877 27.7147 188.322 28.2907 187.895 29.016C187.469 29.6987 187.255 30.4667 187.255 31.32C187.255 32.1307 187.469 32.8773 187.895 33.56C188.365 34.2427 188.962 34.7973 189.687 35.224C190.413 35.6507 191.202 35.864 192.055 35.864ZM230.944 47.576C228.982 47.576 227.254 47.4907 225.76 47.32C224.31 47.1493 223.072 46.808 222.048 46.296C221.024 45.784 220.192 45.0587 219.552 44.12C218.912 43.1387 218.443 41.88 218.144 40.344C217.846 38.7653 217.696 36.8027 217.696 34.456V6.104C217.696 5.12266 217.782 4.20533 217.952 3.352C218.123 2.456 218.614 1.73067 219.424 1.176C220.235 0.578665 221.6 0.279999 223.52 0.279999C225.44 0.279999 226.784 0.578665 227.552 1.176C228.363 1.73067 228.854 2.456 229.024 3.352C229.195 4.248 229.28 5.18667 229.28 6.168V33.752C229.28 34.392 229.28 34.904 229.28 35.288C229.323 35.6293 229.387 35.8853 229.472 36.056C229.6 36.2267 229.771 36.3333 229.984 36.376C230.24 36.376 230.582 36.376 231.008 36.376C231.563 36.376 232.139 36.4613 232.736 36.632C233.376 36.76 233.91 37.208 234.336 37.976C234.806 38.7013 235.04 39.9813 235.04 41.816C235.04 43.736 234.806 45.1013 234.336 45.912C233.91 46.7227 233.376 47.192 232.736 47.32C232.096 47.4907 231.499 47.576 230.944 47.576ZM258.883 48.28C255.683 48.28 252.974 47.768 250.755 46.744C248.537 45.6773 246.745 44.312 245.379 42.648C244.014 40.9413 243.011 39.1067 242.371 37.144C241.731 35.1813 241.411 33.2827 241.411 31.448C241.411 28.0773 242.158 25.112 243.651 22.552C245.145 19.992 247.214 17.9867 249.859 16.536C252.505 15.0853 255.534 14.36 258.947 14.36C261.593 14.36 263.854 14.7867 265.731 15.64C267.609 16.4933 269.123 17.5813 270.275 18.904C271.47 20.2267 272.345 21.6347 272.899 23.128C273.454 24.6213 273.731 26.008 273.731 27.288C273.731 29.72 273.134 31.576 271.939 32.856C270.745 34.136 269.209 34.776 267.331 34.776H253.699C253.87 35.4587 254.211 36.056 254.723 36.568C255.278 37.0373 255.961 37.4213 256.771 37.72C257.582 37.976 258.457 38.104 259.395 38.104C260.334 38.104 261.166 38.0613 261.891 37.976C262.617 37.848 263.235 37.6987 263.747 37.528C264.302 37.3573 264.793 37.1867 265.219 37.016C265.689 36.8453 266.094 36.7173 266.435 36.632C266.819 36.504 267.182 36.44 267.523 36.44C268.291 36.44 268.995 36.696 269.635 37.208C270.275 37.72 270.851 38.488 271.363 39.512C271.662 40.0667 271.875 40.6 272.003 41.112C272.131 41.5813 272.195 42.0293 272.195 42.456C272.195 43.736 271.662 44.8027 270.595 45.656C269.571 46.5093 268.078 47.1493 266.115 47.576C264.153 48.0453 261.742 48.28 258.883 48.28ZM253.699 28.76H260.867C261.465 28.76 261.891 28.632 262.147 28.376C262.446 28.12 262.595 27.736 262.595 27.224C262.595 26.6693 262.425 26.2 262.083 25.816C261.785 25.432 261.358 25.1547 260.803 24.984C260.249 24.7707 259.587 24.664 258.819 24.664C257.795 24.664 256.899 24.8773 256.131 25.304C255.363 25.688 254.766 26.2 254.339 26.84C253.955 27.4373 253.742 28.0773 253.699 28.76Z" fill="#407851"/>
</svg>
